<svg xmlns="http://www.w3.org/2000/svg"  viewBox="0 0 48 48" width="96px" height="96px" baseProfile="basic"><path fill="#babffc" d="M40,7H8c-1.654,0-3,1.346-3,3v2c0,1.654,1.346,3,3,3h1l31-1c1.654,0,2-0.346,2-2l1-2	C43,8.346,41.654,7,40,7z"/><path fill="#324561" d="M40,15H9c-0.553,0-1-0.447-1-1s0.447-1,1-1h31c0.552,0,1-0.448,1-1v-2c0-0.553,0.447-1,1-1	s1,0.447,1,1v2C43,13.654,41.654,15,40,15z"/><path fill="#babffc" d="M40,20H8c-1.654,0-3,1.346-3,3v2c0,1.654,1.346,3,3,3h1l31-1c1.654,0,2-0.346,2-2l1-2	C43,21.346,41.654,20,40,20z"/><path fill="#324561" d="M40,28H9c-0.553,0-1-0.447-1-1s0.447-1,1-1h31c0.552,0,1-0.448,1-1v-2c0-0.553,0.447-1,1-1	s1,0.447,1,1v2C43,26.654,41.654,28,40,28z"/><path fill="#babffc" d="M40,33H8c-1.654,0-3,1.346-3,3v2c0,1.654,1.346,3,3,3h1l31-1c1.654,0,2-0.346,2-2l1-2	C43,34.346,41.654,33,40,33z"/><path fill="#324561" d="M40,41H9c-0.553,0-1-0.447-1-1s0.447-1,1-1h31c0.552,0,1-0.448,1-1v-2c0-0.553,0.447-1,1-1	s1,0.447,1,1v2C43,39.654,41.654,41,40,41z"/></svg>